<mxfile host="Electron" modified="2024-02-04T20:10:05.194Z" agent="Mozilla/5.0 (Windows NT 10.0; Win64; x64) AppleWebKit/537.36 (KHTML, like Gecko) draw.io/23.0.2 Chrome/120.0.6099.109 Electron/28.1.0 Safari/537.36" etag="b-ciFHpQi653L0I44EnJ" version="23.0.2" type="device">
  <diagram name="Page-1" id="Q7zGEM8cMa9GbJ4rTJJM">
    <mxGraphModel dx="989" dy="582" grid="1" gridSize="10" guides="1" tooltips="1" connect="1" arrows="1" fold="1" page="1" pageScale="1" pageWidth="827" pageHeight="1169" math="0" shadow="0">
      <root>
        <mxCell id="0" />
        <mxCell id="1" parent="0" />
        <mxCell id="0O1o3yFjJHdJxX9IdDzH-36" style="rounded=0;orthogonalLoop=1;jettySize=auto;html=1;exitX=1;exitY=0.5;exitDx=0;exitDy=0;entryX=0;entryY=0.5;entryDx=0;entryDy=0;endArrow=none;endFill=0;verticalAlign=middle;" parent="1" source="0O1o3yFjJHdJxX9IdDzH-1" target="0O1o3yFjJHdJxX9IdDzH-6" edge="1">
          <mxGeometry relative="1" as="geometry" />
        </mxCell>
        <mxCell id="0O1o3yFjJHdJxX9IdDzH-1" value="Airport" style="swimlane;fontStyle=0;childLayout=stackLayout;horizontal=1;startSize=26;horizontalStack=0;resizeParent=1;resizeParentMax=0;resizeLast=0;collapsible=1;marginBottom=0;align=center;fontSize=14;verticalAlign=middle;" parent="1" vertex="1">
          <mxGeometry x="60" y="415" width="80" height="116" as="geometry" />
        </mxCell>
        <mxCell id="0O1o3yFjJHdJxX9IdDzH-2" value="name" style="text;strokeColor=none;fillColor=default;spacingLeft=4;spacingRight=4;overflow=hidden;rotatable=0;points=[[0,0.5],[1,0.5]];portConstraint=eastwest;fontSize=12;whiteSpace=wrap;html=1;verticalAlign=middle;" parent="0O1o3yFjJHdJxX9IdDzH-1" vertex="1">
          <mxGeometry y="26" width="80" height="20" as="geometry" />
        </mxCell>
        <mxCell id="0O1o3yFjJHdJxX9IdDzH-3" value="country" style="text;strokeColor=none;fillColor=default;spacingLeft=4;spacingRight=4;overflow=hidden;rotatable=0;points=[[0,0.5],[1,0.5]];portConstraint=eastwest;fontSize=12;whiteSpace=wrap;html=1;verticalAlign=middle;" parent="0O1o3yFjJHdJxX9IdDzH-1" vertex="1">
          <mxGeometry y="46" width="80" height="20" as="geometry" />
        </mxCell>
        <mxCell id="0O1o3yFjJHdJxX9IdDzH-4" value="&lt;u&gt;code&lt;/u&gt;" style="text;strokeColor=none;fillColor=default;spacingLeft=4;spacingRight=4;overflow=hidden;rotatable=0;points=[[0,0.5],[1,0.5]];portConstraint=eastwest;fontSize=12;whiteSpace=wrap;html=1;verticalAlign=middle;" parent="0O1o3yFjJHdJxX9IdDzH-1" vertex="1">
          <mxGeometry y="66" width="80" height="20" as="geometry" />
        </mxCell>
        <mxCell id="0O1o3yFjJHdJxX9IdDzH-5" value="continent" style="text;strokeColor=none;fillColor=default;spacingLeft=4;spacingRight=4;overflow=hidden;rotatable=0;points=[[0,0.5],[1,0.5]];portConstraint=eastwest;fontSize=12;whiteSpace=wrap;html=1;verticalAlign=middle;" parent="0O1o3yFjJHdJxX9IdDzH-1" vertex="1">
          <mxGeometry y="86" width="80" height="30" as="geometry" />
        </mxCell>
        <mxCell id="0O1o3yFjJHdJxX9IdDzH-37" style="edgeStyle=none;shape=connector;rounded=0;orthogonalLoop=1;jettySize=auto;html=1;exitX=1;exitY=0.5;exitDx=0;exitDy=0;entryX=0;entryY=0.5;entryDx=0;entryDy=0;labelBackgroundColor=default;strokeColor=default;align=center;verticalAlign=middle;fontFamily=Helvetica;fontSize=11;fontColor=default;endArrow=none;endFill=0;" parent="1" source="0O1o3yFjJHdJxX9IdDzH-6" target="0O1o3yFjJHdJxX9IdDzH-24" edge="1">
          <mxGeometry relative="1" as="geometry" />
        </mxCell>
        <mxCell id="0O1o3yFjJHdJxX9IdDzH-6" value="Route" style="swimlane;fontStyle=0;childLayout=stackLayout;horizontal=1;startSize=26;horizontalStack=0;resizeParent=1;resizeParentMax=0;resizeLast=0;collapsible=1;marginBottom=0;align=center;fontSize=14;verticalAlign=middle;" parent="1" vertex="1">
          <mxGeometry x="200" y="410" width="80" height="126" as="geometry" />
        </mxCell>
        <mxCell id="0O1o3yFjJHdJxX9IdDzH-7" value="&lt;u&gt;routeID&lt;/u&gt;" style="text;strokeColor=none;fillColor=default;spacingLeft=4;spacingRight=4;overflow=hidden;rotatable=0;points=[[0,0.5],[1,0.5]];portConstraint=eastwest;fontSize=12;whiteSpace=wrap;html=1;verticalAlign=middle;" parent="0O1o3yFjJHdJxX9IdDzH-6" vertex="1">
          <mxGeometry y="26" width="80" height="20" as="geometry" />
        </mxCell>
        <mxCell id="0O1o3yFjJHdJxX9IdDzH-8" value="depCode*" style="text;spacingLeft=4;spacingRight=4;overflow=hidden;rotatable=0;points=[[0,0.5],[1,0.5]];portConstraint=eastwest;fontSize=12;whiteSpace=wrap;html=1;fillColor=default;verticalAlign=middle;" parent="0O1o3yFjJHdJxX9IdDzH-6" vertex="1">
          <mxGeometry y="46" width="80" height="20" as="geometry" />
        </mxCell>
        <mxCell id="0O1o3yFjJHdJxX9IdDzH-9" value="arrCode*" style="text;spacingLeft=4;spacingRight=4;overflow=hidden;rotatable=0;points=[[0,0.5],[1,0.5]];portConstraint=eastwest;fontSize=12;whiteSpace=wrap;html=1;fillColor=default;verticalAlign=middle;" parent="0O1o3yFjJHdJxX9IdDzH-6" vertex="1">
          <mxGeometry y="66" width="80" height="20" as="geometry" />
        </mxCell>
        <mxCell id="0O1o3yFjJHdJxX9IdDzH-10" value="stop1code*" style="text;strokeColor=none;fillColor=default;spacingLeft=4;spacingRight=4;overflow=hidden;rotatable=0;points=[[0,0.5],[1,0.5]];portConstraint=eastwest;fontSize=12;whiteSpace=wrap;html=1;verticalAlign=middle;" parent="0O1o3yFjJHdJxX9IdDzH-6" vertex="1">
          <mxGeometry y="86" width="80" height="20" as="geometry" />
        </mxCell>
        <mxCell id="0O1o3yFjJHdJxX9IdDzH-11" value="stop2code*" style="text;strokeColor=none;fillColor=default;spacingLeft=4;spacingRight=4;overflow=hidden;rotatable=0;points=[[0,0.5],[1,0.5]];portConstraint=eastwest;fontSize=12;whiteSpace=wrap;html=1;verticalAlign=middle;" parent="0O1o3yFjJHdJxX9IdDzH-6" vertex="1">
          <mxGeometry y="106" width="80" height="20" as="geometry" />
        </mxCell>
        <mxCell id="0O1o3yFjJHdJxX9IdDzH-12" value="Customer" style="swimlane;fontStyle=0;childLayout=stackLayout;horizontal=1;startSize=26;horizontalStack=0;resizeParent=1;resizeParentMax=0;resizeLast=0;collapsible=1;marginBottom=0;align=center;fontSize=14;verticalAlign=middle;" parent="1" vertex="1">
          <mxGeometry x="650" y="400" width="80" height="146" as="geometry" />
        </mxCell>
        <mxCell id="0O1o3yFjJHdJxX9IdDzH-13" value="&lt;u&gt;customerID&lt;/u&gt;" style="text;strokeColor=none;fillColor=default;spacingLeft=4;spacingRight=4;overflow=hidden;rotatable=0;points=[[0,0.5],[1,0.5]];portConstraint=eastwest;fontSize=12;whiteSpace=wrap;html=1;verticalAlign=middle;" parent="0O1o3yFjJHdJxX9IdDzH-12" vertex="1">
          <mxGeometry y="26" width="80" height="20" as="geometry" />
        </mxCell>
        <mxCell id="0O1o3yFjJHdJxX9IdDzH-14" value="forename" style="text;spacingLeft=4;spacingRight=4;overflow=hidden;rotatable=0;points=[[0,0.5],[1,0.5]];portConstraint=eastwest;fontSize=12;whiteSpace=wrap;html=1;fillColor=default;verticalAlign=middle;" parent="0O1o3yFjJHdJxX9IdDzH-12" vertex="1">
          <mxGeometry y="46" width="80" height="20" as="geometry" />
        </mxCell>
        <mxCell id="0O1o3yFjJHdJxX9IdDzH-15" value="surname" style="text;spacingLeft=4;spacingRight=4;overflow=hidden;rotatable=0;points=[[0,0.5],[1,0.5]];portConstraint=eastwest;fontSize=12;whiteSpace=wrap;html=1;fillColor=default;verticalAlign=middle;" parent="0O1o3yFjJHdJxX9IdDzH-12" vertex="1">
          <mxGeometry y="66" width="80" height="20" as="geometry" />
        </mxCell>
        <mxCell id="0O1o3yFjJHdJxX9IdDzH-16" value="street" style="text;strokeColor=none;fillColor=default;spacingLeft=4;spacingRight=4;overflow=hidden;rotatable=0;points=[[0,0.5],[1,0.5]];portConstraint=eastwest;fontSize=12;whiteSpace=wrap;html=1;verticalAlign=middle;" parent="0O1o3yFjJHdJxX9IdDzH-12" vertex="1">
          <mxGeometry y="86" width="80" height="20" as="geometry" />
        </mxCell>
        <mxCell id="0O1o3yFjJHdJxX9IdDzH-17" value="town" style="text;strokeColor=none;fillColor=default;spacingLeft=4;spacingRight=4;overflow=hidden;rotatable=0;points=[[0,0.5],[1,0.5]];portConstraint=eastwest;fontSize=12;whiteSpace=wrap;html=1;verticalAlign=middle;" parent="0O1o3yFjJHdJxX9IdDzH-12" vertex="1">
          <mxGeometry y="106" width="80" height="20" as="geometry" />
        </mxCell>
        <mxCell id="0O1o3yFjJHdJxX9IdDzH-34" value="postcode" style="text;strokeColor=none;fillColor=default;spacingLeft=4;spacingRight=4;overflow=hidden;rotatable=0;points=[[0,0.5],[1,0.5]];portConstraint=eastwest;fontSize=12;whiteSpace=wrap;html=1;verticalAlign=middle;" parent="0O1o3yFjJHdJxX9IdDzH-12" vertex="1">
          <mxGeometry y="126" width="80" height="20" as="geometry" />
        </mxCell>
        <mxCell id="0O1o3yFjJHdJxX9IdDzH-18" value="Booking" style="swimlane;fontStyle=0;childLayout=stackLayout;horizontal=1;startSize=26;horizontalStack=0;resizeParent=1;resizeParentMax=0;resizeLast=0;collapsible=1;marginBottom=0;align=center;fontSize=14;verticalAlign=middle;" parent="1" vertex="1">
          <mxGeometry x="480" y="400" width="110" height="146" as="geometry" />
        </mxCell>
        <mxCell id="0O1o3yFjJHdJxX9IdDzH-19" value="&lt;u&gt;bookingNo&lt;/u&gt;" style="text;strokeColor=none;fillColor=default;spacingLeft=4;spacingRight=4;overflow=hidden;rotatable=0;points=[[0,0.5],[1,0.5]];portConstraint=eastwest;fontSize=12;whiteSpace=wrap;html=1;verticalAlign=middle;" parent="0O1o3yFjJHdJxX9IdDzH-18" vertex="1">
          <mxGeometry y="26" width="110" height="20" as="geometry" />
        </mxCell>
        <mxCell id="0O1o3yFjJHdJxX9IdDzH-20" value="adultTicket" style="text;spacingLeft=4;spacingRight=4;overflow=hidden;rotatable=0;points=[[0,0.5],[1,0.5]];portConstraint=eastwest;fontSize=12;whiteSpace=wrap;html=1;fillColor=default;verticalAlign=middle;" parent="0O1o3yFjJHdJxX9IdDzH-18" vertex="1">
          <mxGeometry y="46" width="110" height="20" as="geometry" />
        </mxCell>
        <mxCell id="0O1o3yFjJHdJxX9IdDzH-21" value="childTicket" style="text;spacingLeft=4;spacingRight=4;overflow=hidden;rotatable=0;points=[[0,0.5],[1,0.5]];portConstraint=eastwest;fontSize=12;whiteSpace=wrap;html=1;fillColor=default;verticalAlign=middle;" parent="0O1o3yFjJHdJxX9IdDzH-18" vertex="1">
          <mxGeometry y="66" width="110" height="20" as="geometry" />
        </mxCell>
        <mxCell id="0O1o3yFjJHdJxX9IdDzH-22" value="concessionTicket" style="text;strokeColor=none;fillColor=default;spacingLeft=4;spacingRight=4;overflow=hidden;rotatable=0;points=[[0,0.5],[1,0.5]];portConstraint=eastwest;fontSize=12;whiteSpace=wrap;html=1;verticalAlign=middle;" parent="0O1o3yFjJHdJxX9IdDzH-18" vertex="1">
          <mxGeometry y="86" width="110" height="20" as="geometry" />
        </mxCell>
        <mxCell id="0O1o3yFjJHdJxX9IdDzH-32" value="customerID*" style="text;strokeColor=none;fillColor=default;spacingLeft=4;spacingRight=4;overflow=hidden;rotatable=0;points=[[0,0.5],[1,0.5]];portConstraint=eastwest;fontSize=12;whiteSpace=wrap;html=1;verticalAlign=middle;" parent="0O1o3yFjJHdJxX9IdDzH-18" vertex="1">
          <mxGeometry y="106" width="110" height="20" as="geometry" />
        </mxCell>
        <mxCell id="0O1o3yFjJHdJxX9IdDzH-23" value="flightID*" style="text;strokeColor=none;fillColor=default;spacingLeft=4;spacingRight=4;overflow=hidden;rotatable=0;points=[[0,0.5],[1,0.5]];portConstraint=eastwest;fontSize=12;whiteSpace=wrap;html=1;verticalAlign=middle;" parent="0O1o3yFjJHdJxX9IdDzH-18" vertex="1">
          <mxGeometry y="126" width="110" height="20" as="geometry" />
        </mxCell>
        <mxCell id="0O1o3yFjJHdJxX9IdDzH-38" style="edgeStyle=none;shape=connector;rounded=0;orthogonalLoop=1;jettySize=auto;html=1;exitX=1;exitY=0.5;exitDx=0;exitDy=0;entryX=0;entryY=0.5;entryDx=0;entryDy=0;labelBackgroundColor=default;strokeColor=default;align=center;verticalAlign=middle;fontFamily=Helvetica;fontSize=11;fontColor=default;endArrow=none;endFill=0;" parent="1" source="0O1o3yFjJHdJxX9IdDzH-24" target="0O1o3yFjJHdJxX9IdDzH-18" edge="1">
          <mxGeometry relative="1" as="geometry" />
        </mxCell>
        <mxCell id="0O1o3yFjJHdJxX9IdDzH-24" value="Flight" style="swimlane;fontStyle=0;childLayout=stackLayout;horizontal=1;startSize=26;horizontalStack=0;resizeParent=1;resizeParentMax=0;resizeLast=0;collapsible=1;marginBottom=0;align=center;fontSize=14;verticalAlign=middle;" parent="1" vertex="1">
          <mxGeometry x="340" y="390" width="80" height="166" as="geometry" />
        </mxCell>
        <mxCell id="0O1o3yFjJHdJxX9IdDzH-25" value="&lt;u&gt;flightID&lt;/u&gt;" style="text;strokeColor=none;fillColor=default;spacingLeft=4;spacingRight=4;overflow=hidden;rotatable=0;points=[[0,0.5],[1,0.5]];portConstraint=eastwest;fontSize=12;whiteSpace=wrap;html=1;verticalAlign=middle;" parent="0O1o3yFjJHdJxX9IdDzH-24" vertex="1">
          <mxGeometry y="26" width="80" height="20" as="geometry" />
        </mxCell>
        <mxCell id="0O1o3yFjJHdJxX9IdDzH-26" value="depDate" style="text;spacingLeft=4;spacingRight=4;overflow=hidden;rotatable=0;points=[[0,0.5],[1,0.5]];portConstraint=eastwest;fontSize=12;whiteSpace=wrap;html=1;fillColor=default;verticalAlign=middle;" parent="0O1o3yFjJHdJxX9IdDzH-24" vertex="1">
          <mxGeometry y="46" width="80" height="20" as="geometry" />
        </mxCell>
        <mxCell id="0O1o3yFjJHdJxX9IdDzH-27" value="depTime" style="text;spacingLeft=4;spacingRight=4;overflow=hidden;rotatable=0;points=[[0,0.5],[1,0.5]];portConstraint=eastwest;fontSize=12;whiteSpace=wrap;html=1;fillColor=default;verticalAlign=middle;" parent="0O1o3yFjJHdJxX9IdDzH-24" vertex="1">
          <mxGeometry y="66" width="80" height="20" as="geometry" />
        </mxCell>
        <mxCell id="0O1o3yFjJHdJxX9IdDzH-30" value="arrDate" style="text;strokeColor=none;fillColor=default;spacingLeft=4;spacingRight=4;overflow=hidden;rotatable=0;points=[[0,0.5],[1,0.5]];portConstraint=eastwest;fontSize=12;whiteSpace=wrap;html=1;verticalAlign=middle;" parent="0O1o3yFjJHdJxX9IdDzH-24" vertex="1">
          <mxGeometry y="86" width="80" height="20" as="geometry" />
        </mxCell>
        <mxCell id="0O1o3yFjJHdJxX9IdDzH-28" value="arrTime" style="text;strokeColor=none;fillColor=default;spacingLeft=4;spacingRight=4;overflow=hidden;rotatable=0;points=[[0,0.5],[1,0.5]];portConstraint=eastwest;fontSize=12;whiteSpace=wrap;html=1;verticalAlign=middle;" parent="0O1o3yFjJHdJxX9IdDzH-24" vertex="1">
          <mxGeometry y="106" width="80" height="20" as="geometry" />
        </mxCell>
        <mxCell id="0O1o3yFjJHdJxX9IdDzH-31" value="capacity" style="text;strokeColor=none;fillColor=default;spacingLeft=4;spacingRight=4;overflow=hidden;rotatable=0;points=[[0,0.5],[1,0.5]];portConstraint=eastwest;fontSize=12;whiteSpace=wrap;html=1;verticalAlign=middle;" parent="0O1o3yFjJHdJxX9IdDzH-24" vertex="1">
          <mxGeometry y="126" width="80" height="20" as="geometry" />
        </mxCell>
        <mxCell id="0O1o3yFjJHdJxX9IdDzH-29" value="routeID*" style="text;strokeColor=none;fillColor=default;spacingLeft=4;spacingRight=4;overflow=hidden;rotatable=0;points=[[0,0.5],[1,0.5]];portConstraint=eastwest;fontSize=12;whiteSpace=wrap;html=1;verticalAlign=middle;" parent="0O1o3yFjJHdJxX9IdDzH-24" vertex="1">
          <mxGeometry y="146" width="80" height="20" as="geometry" />
        </mxCell>
        <mxCell id="0O1o3yFjJHdJxX9IdDzH-39" style="edgeStyle=none;shape=connector;rounded=0;orthogonalLoop=1;jettySize=auto;html=1;exitX=1;exitY=0.5;exitDx=0;exitDy=0;labelBackgroundColor=default;strokeColor=default;align=center;verticalAlign=middle;fontFamily=Helvetica;fontSize=11;fontColor=default;endArrow=none;endFill=0;" parent="1" source="0O1o3yFjJHdJxX9IdDzH-21" edge="1">
          <mxGeometry relative="1" as="geometry">
            <mxPoint x="650" y="476" as="targetPoint" />
          </mxGeometry>
        </mxCell>
        <mxCell id="0O1o3yFjJHdJxX9IdDzH-40" value="" style="endArrow=none;html=1;rounded=0;labelBackgroundColor=default;strokeColor=default;align=center;verticalAlign=middle;fontFamily=Helvetica;fontSize=11;fontColor=default;shape=connector;" parent="1" edge="1">
          <mxGeometry width="50" height="50" relative="1" as="geometry">
            <mxPoint x="180" y="473" as="sourcePoint" />
            <mxPoint x="200" y="463" as="targetPoint" />
          </mxGeometry>
        </mxCell>
        <mxCell id="0O1o3yFjJHdJxX9IdDzH-41" value="" style="endArrow=none;html=1;rounded=0;labelBackgroundColor=default;strokeColor=default;align=center;verticalAlign=middle;fontFamily=Helvetica;fontSize=11;fontColor=default;shape=connector;" parent="1" edge="1">
          <mxGeometry width="50" height="50" relative="1" as="geometry">
            <mxPoint x="180" y="473" as="sourcePoint" />
            <mxPoint x="200" y="483" as="targetPoint" />
          </mxGeometry>
        </mxCell>
        <mxCell id="0O1o3yFjJHdJxX9IdDzH-42" value="" style="endArrow=none;html=1;rounded=0;labelBackgroundColor=default;strokeColor=default;align=center;verticalAlign=middle;fontFamily=Helvetica;fontSize=11;fontColor=default;shape=connector;" parent="1" edge="1">
          <mxGeometry width="50" height="50" relative="1" as="geometry">
            <mxPoint x="320" y="473" as="sourcePoint" />
            <mxPoint x="340" y="463" as="targetPoint" />
          </mxGeometry>
        </mxCell>
        <mxCell id="0O1o3yFjJHdJxX9IdDzH-43" value="" style="endArrow=none;html=1;rounded=0;labelBackgroundColor=default;strokeColor=default;align=center;verticalAlign=middle;fontFamily=Helvetica;fontSize=11;fontColor=default;shape=connector;" parent="1" edge="1">
          <mxGeometry width="50" height="50" relative="1" as="geometry">
            <mxPoint x="320" y="473" as="sourcePoint" />
            <mxPoint x="340" y="483" as="targetPoint" />
          </mxGeometry>
        </mxCell>
        <mxCell id="0O1o3yFjJHdJxX9IdDzH-44" value="" style="endArrow=none;html=1;rounded=0;labelBackgroundColor=default;strokeColor=default;align=center;verticalAlign=middle;fontFamily=Helvetica;fontSize=11;fontColor=default;shape=connector;" parent="1" edge="1">
          <mxGeometry width="50" height="50" relative="1" as="geometry">
            <mxPoint x="460" y="473" as="sourcePoint" />
            <mxPoint x="480" y="463" as="targetPoint" />
          </mxGeometry>
        </mxCell>
        <mxCell id="0O1o3yFjJHdJxX9IdDzH-45" value="" style="endArrow=none;html=1;rounded=0;labelBackgroundColor=default;strokeColor=default;align=center;verticalAlign=middle;fontFamily=Helvetica;fontSize=11;fontColor=default;shape=connector;" parent="1" edge="1">
          <mxGeometry width="50" height="50" relative="1" as="geometry">
            <mxPoint x="460" y="473" as="sourcePoint" />
            <mxPoint x="480" y="483" as="targetPoint" />
          </mxGeometry>
        </mxCell>
        <mxCell id="0O1o3yFjJHdJxX9IdDzH-46" value="" style="endArrow=none;html=1;rounded=0;labelBackgroundColor=default;strokeColor=default;align=center;verticalAlign=middle;fontFamily=Helvetica;fontSize=11;fontColor=default;shape=connector;" parent="1" edge="1">
          <mxGeometry width="50" height="50" relative="1" as="geometry">
            <mxPoint x="590" y="466" as="sourcePoint" />
            <mxPoint x="610" y="476" as="targetPoint" />
          </mxGeometry>
        </mxCell>
        <mxCell id="0O1o3yFjJHdJxX9IdDzH-47" value="" style="endArrow=none;html=1;rounded=0;labelBackgroundColor=default;strokeColor=default;align=center;verticalAlign=middle;fontFamily=Helvetica;fontSize=11;fontColor=default;shape=connector;" parent="1" edge="1">
          <mxGeometry width="50" height="50" relative="1" as="geometry">
            <mxPoint x="590" y="486" as="sourcePoint" />
            <mxPoint x="610" y="476" as="targetPoint" />
          </mxGeometry>
        </mxCell>
      </root>
    </mxGraphModel>
  </diagram>
</mxfile>
